<svg xmlns="http://www.w3.org/2000/svg" width="24" height="23.98" viewBox="0 0 24 23.98">
  <g id="blog-icon" transform="translate(0 -0.01)">
    <path id="Path_1020" data-name="Path 1020" d="M20.724.011C20.3.011,3.233,0,2.843.084A3.618,3.618,0,0,0,.1,2.721c-.1.376-.1.567-.1,9.3,0,8.774,0,8.92.1,9.286A3.676,3.676,0,0,0,2.744,23.9c.33.087.764.091,9.225.093,8.75,0,8.884,0,9.27-.1a3.579,3.579,0,0,0,2.739-3.08L24,3.447S23.792.01,20.724.011ZM19.419,13.363a10.494,10.494,0,0,1-.123,2.575A4.531,4.531,0,0,1,18.128,18a4.441,4.441,0,0,1-2.718,1.39c-.621.085-6.679.062-7.17-.026A4.606,4.606,0,0,1,5.487,17.6a4.007,4.007,0,0,1-.711-1.37c-.211-.668-.234-1.162-.213-4.531a23.025,23.025,0,0,1,.1-3.449A4.735,4.735,0,0,1,7.527,4.91c.784-.312,1.295-.359,3.6-.332a11.674,11.674,0,0,1,2.1.1A5.065,5.065,0,0,1,15.4,6.02a4.277,4.277,0,0,1,1.359,3.031c0,.574.093.785.427.981.21.123.285.136.951.166a4.171,4.171,0,0,1,.829.09.958.958,0,0,1,.414.615A21.485,21.485,0,0,1,19.419,13.363Z" fill="#fff"/>
    <path id="Path_1021" data-name="Path 1021" d="M12.806,9.356a.781.781,0,0,1-.408.716c-.151.1-.241.1-1.668.11a16.318,16.318,0,0,1-1.688-.04A.844.844,0,0,1,8.69,8.789c.259-.262.331-.272,1.953-.272,1.456,0,1.506,0,1.72.111A.733.733,0,0,1,12.806,9.356Z" fill="#fff"/>
    <path id="Path_1022" data-name="Path 1022" d="M15.469,14.7a.692.692,0,0,1-.493.716,11.651,11.651,0,0,1-2.86.11c-1.423.005-2.785-.012-2.954-.04a.781.781,0,0,1-.377-1.433c.419-.262.571-.192,3.191-.192a12.373,12.373,0,0,1,2.908.087A.741.741,0,0,1,15.469,14.7Z" fill="#fff"/>
  </g>
</svg>
